<svg width="24" height="25" viewBox="0 0 24 25" fill="none" xmlns="http://www.w3.org/2000/svg">
<path d="M22 22.0386L20 20.0386M11.5 21.0386C12.7476 21.0386 13.9829 20.7928 15.1355 20.3154C16.2881 19.838 17.3354 19.1382 18.2175 18.2561C19.0997 17.3739 19.7994 16.3267 20.2769 15.1741C20.7543 14.0215 21 12.7861 21 11.5386C21 10.291 20.7543 9.05567 20.2769 7.90308C19.7994 6.75049 19.0997 5.70322 18.2175 4.82106C17.3354 3.9389 16.2881 3.23914 15.1355 2.76172C13.9829 2.2843 12.7476 2.03857 11.5 2.03857C8.98044 2.03857 6.56408 3.03946 4.78249 4.82106C3.00089 6.60266 2 9.01902 2 11.5386C2 14.0581 3.00089 16.4745 4.78249 18.2561C6.56408 20.0377 8.98044 21.0386 11.5 21.0386Z" stroke="black" stroke-width="1.5" stroke-linecap="round" stroke-linejoin="round"/>
</svg>
