<svg width="25" height="25" viewBox="0 0 25 25" fill="none" xmlns="http://www.w3.org/2000/svg">
<path d="M3.34351 11.2585V15.7485C3.34351 20.2385 5.14351 22.0385 9.63351 22.0385H15.0235C19.5135 22.0385 21.3135 20.2385 21.3135 15.7485V11.2585" stroke="black" stroke-width="1.5" stroke-linecap="round" stroke-linejoin="round"/>
<path d="M12.3335 12.0386C14.1635 12.0386 15.5135 10.5486 15.3335 8.71857L14.6735 2.03857H10.0035L9.33349 8.71857C9.15349 10.5486 10.5035 12.0386 12.3335 12.0386Z" stroke="black" stroke-width="1.5" stroke-linecap="round" stroke-linejoin="round"/>
<path d="M18.6435 12.0386C20.6635 12.0386 22.1435 10.3986 21.9435 8.38857L21.6635 5.63857C21.3035 3.03857 20.3035 2.03857 17.6835 2.03857H14.6335L15.3335 9.04857C15.5035 10.6986 16.9935 12.0386 18.6435 12.0386ZM5.9735 12.0386C7.6235 12.0386 9.1135 10.6986 9.2735 9.04857L9.4935 6.83857L9.9735 2.03857H6.9235C4.3035 2.03857 3.3035 3.03857 2.9435 5.63857L2.6735 8.38857C2.4735 10.3986 3.9535 12.0386 5.9735 12.0386ZM12.3335 17.0386C10.6635 17.0386 9.8335 17.8686 9.8335 19.5386V22.0386H14.8335V19.5386C14.8335 17.8686 14.0035 17.0386 12.3335 17.0386Z" stroke="black" stroke-width="1.5" stroke-linecap="round" stroke-linejoin="round"/>
</svg>
